<svg xmlns="http://www.w3.org/2000/svg" viewBox="0 0 100 100" fill="none">
  <defs>
    <linearGradient id="mg" x1="0" y1="100" x2="100" y2="0" gradientUnits="userSpaceOnUse">
      <stop offset="0%" stop-color="#2EBAC6"/>
      <stop offset="100%" stop-color="#6B5CE7"/>
    </linearGradient>
  </defs>
  <!-- Left wing -->
  <path d="M50 50 C35 35 10 30 15 15 C20 5 40 10 50 50Z" fill="url(#mg)" opacity="0.9"/>
  <path d="M50 50 C30 55 8 65 10 80 C12 90 35 88 50 50Z" fill="url(#mg)" opacity="0.75"/>
  <!-- Right wing -->
  <path d="M50 50 C65 35 90 30 85 15 C80 5 60 10 50 50Z" fill="url(#mg)" opacity="0.9"/>
  <path d="M50 50 C70 55 92 65 90 80 C88 90 65 88 50 50Z" fill="url(#mg)" opacity="0.75"/>
  <!-- Center body -->
  <ellipse cx="50" cy="50" rx="5" ry="14" fill="url(#mg)"/>
</svg>
